#!OML:ASF F:\VICON\USERDATA\INSTALL\rory3\rory3.ASF
:FULLY-SPECIFIED
:DEGREES
309
root 4.81748 17.0723 2.41974 14.1377 -6.62644 -7.84875
lowerback 6.16009 -0.966152 4.17253
upperback 0.709531 -0.936669 2.43662
thorax -2.7491 -0.501476 0.251788
lowerneck -15.1003 -1.45695 -1.80895
upperneck 38.5714 -1.55046 -0.597486
head 16.3755 -1.05246 -0.235414
rclavicle -4.87022e-015 -3.10104e-014
rhumerus -11.2465 25.1679 -50.2369
rradius 67.0092
rwrist 1.40709
rhand -14.367 -41.0268
rfingers 7.12502
rthumb 11.7752 -70.6758
lclavicle -4.87022e-015 -3.10104e-014
lhumerus 11.1232 -12.2994 38.1093
lradius 35.4621
lwrist 25.8669
lhand -21.642 -23.906
lfingers 7.12502
lthumb 4.75442 6.02068
rfemur -69.6803 -0.195084 16.6254
rtibia 94.9558
rfoot 39.8527 -0.388414
rtoes -4.21288
lfemur -33.9122 -0.861034 -20.9898
ltibia 40.917
lfoot -18.2851 5.92119
ltoes 14.6575
310
root 4.81797 17.076 2.42323 14.0814 -6.72435 -7.78531
lowerback 6.15276 -0.941814 4.10487
upperback 0.714233 -0.910536 2.40069
thorax -2.73893 -0.487723 0.250027
lowerneck -14.9106 -1.46517 -1.89806
upperneck 38.5391 -1.59174 -0.464532
head 16.3145 -1.06465 -0.166336
rclavicle -2.54444e-014 2.14687e-014
rhumerus -12.0506 25.1084 -50.7625
rradius 66.7996
rwrist 1.47186
rhand -14.7063 -40.5028
rfingers 7.12502
rthumb 11.448 -70.1702
lclavicle -2.54444e-014 2.14687e-014
lhumerus 10.6841 -12.626 38.512
lradius 35.2928
lwrist 25.8426
lhand -21.4338 -23.9572
lfingers 7.12502
lthumb 4.95547 5.96482
rfemur -70.3643 -0.146788 16.6765
rtibia 95.6143
rfoot 40.4105 0.46005
rtoes -4.38041
lfemur -33.7771 -0.609192 -21.126
ltibia 40.8178
lfoot -18.313 5.75537
ltoes 15.5436
311
root 4.81763 17.0836 2.42165 14.0059 -6.75086 -7.84276
lowerback 6.28477 -0.937489 4.14722
upperback 0.742027 -0.895012 2.39984
thorax -2.78434 -0.480818 0.226104
lowerneck -14.9427 -1.49516 -1.94674
upperneck 38.5485 -1.66162 -0.362377
head 16.33 -1.08643 -0.125822
rclavicle -2.3059e-014 -1.78906e-014
rhumerus -12.6232 24.9564 -51.3066
rradius 66.3238
rwrist 1.84093
rhand -14.7592 -40.5509
rfingers 7.12502
rthumb 11.397 -70.2212
lclavicle -2.3059e-014 -1.78906e-014
lhumerus 10.2626 -12.6549 38.9934
lradius 35.101
lwrist 25.7634
lhand -20.8668 -24.1431
lfingers 7.12502
lthumb 5.50298 5.76541
rfemur -71.0169 -0.102892 16.9214
rtibia 96.2317
rfoot 40.9345 1.20007
rtoes -4.23526
lfemur -33.6517 -0.462537 -21.0778
ltibia 40.6979
lfoot -18.2929 5.62453
ltoes 16.4962
312
root 4.81534 17.0874 2.41868 13.8869 -6.709 -7.81746
lowerback 6.4511 -0.964632 4.11059
upperback 0.796885 -0.926366 2.37832
thorax -2.82127 -0.496052 0.229319
lowerneck -15.0427 -1.50034 -1.91989
upperneck 38.5233 -1.68783 -0.331563
head 16.3417 -1.0886 -0.12259
rclavicle -8.74653e-015 -2.62396e-014
rhumerus -13.1556 24.7256 -51.8268
rradius 65.8512
rwrist 2.4019
rhand -14.6633 -40.5862
rfingers 7.12502
rthumb 11.4895 -70.2513
lclavicle -8.74653e-015 -2.62396e-014
lhumerus 9.76677 -12.5914 39.5052
lradius 34.9756
lwrist 25.481
lhand -20.8624 -24.2819
lfingers 7.12502
lthumb 5.50724 5.62658
rfemur -71.6383 -0.157767 17.1003
rtibia 96.8606
rfoot 41.3565 1.61986
rtoes -4.70261
lfemur -33.4867 -0.421809 -21.0912
ltibia 40.5457
lfoot -18.1995 5.52194
ltoes 16.4412
313
root 4.81583 17.0901 2.42278 13.7045 -6.69197 -7.61654
lowerback 6.58634 -0.995268 3.93924
upperback 0.835355 -0.974648 2.30979
thorax -2.85669 -0.518523 0.260555
lowerneck -14.9724 -1.4614 -1.85965
upperneck 38.5131 -1.63044 -0.38228
head 16.3167 -1.06357 -0.144527
rclavicle -1.0138e-014 2.90226e-014
rhumerus -13.9521 24.5939 -52.3281
rradius 65.655
rwrist 2.86744
rhand -14.7859 -40.3861
rfingers 7.12502
rthumb 11.3713 -70.0578
lclavicle -1.0138e-014 2.90226e-014
lhumerus 9.20742 -12.5932 40.044
lradius 34.8185
lwrist 25.1076
lhand -21.2303 -25.1215
lfingers 7.12502
lthumb 5.15199 4.79587
rfemur -72.1852 -0.32025 17.0658
rtibia 97.5006
rfoot 41.8571 2.04108
rtoes -5.26143
lfemur -33.1977 -0.385268 -21.3351
ltibia 40.3843
lfoot -18.1573 5.45921
ltoes 16.3687
314
root 4.81613 17.0954 2.42818 13.5505 -6.69635 -7.50377
lowerback 6.66761 -0.992549 3.83964
upperback 0.882713 -0.976256 2.28108
thorax -2.85198 -0.517884 0.287556
lowerneck -14.8349 -1.42306 -1.84681
upperneck 38.4963 -1.56063 -0.428384
head 16.2725 -1.03947 -0.152948
rclavicle 2.15681e-014 -1.03368e-014
rhumerus -14.7288 24.4781 -52.7746
rradius 65.4896
rwrist 3.12869
rhand -14.937 -40.1694
rfingers 7.12502
rthumb 11.2255 -69.8491
lclavicle 2.15681e-014 -1.03368e-014
lhumerus 8.66099 -12.5283 40.6423
lradius 34.7201
lwrist 24.759
lhand -21.2953 -26.0569
lfingers 7.12502
lthumb 5.08919 3.86194
rfemur -72.7252 -0.452678 17.1461
rtibia 98.1179
rfoot 42.3315 2.8864
rtoes -6.67777
lfemur -32.9476 -0.312819 -21.4851
ltibia 40.2636
lfoot -18.1557 5.38761
ltoes 16.6287
315
root 4.81395 17.0976 2.42914 13.4972 -6.67304 -7.52285
lowerback 6.67197 -0.978967 3.86046
upperback 0.937317 -0.958595 2.28618
thorax -2.79775 -0.508192 0.278896
lowerneck -14.7583 -1.40596 -1.86733
upperneck 38.4497 -1.52758 -0.428789
head 16.2292 -1.02841 -0.14224
rclavicle -1.99779e-014 2.0276e-014
rhumerus -15.287 24.2953 -53.1874
rradius 65.1044
rwrist 3.20343
rhand -15.0314 -40.187
rfingers 7.12502
rthumb 11.1344 -69.8716
lclavicle -1.99779e-014 2.0276e-014
lhumerus 8.21087 -12.6193 41.1178
lradius 34.6663
lwrist 24.7421
lhand -21.1245 -26.1302
lfingers 7.12502
lthumb 5.25417 3.78469
rfemur -73.3248 -0.5272 17.3721
rtibia 98.7247
rfoot 42.8701 3.36202
rtoes -7.58112
lfemur -32.8685 -0.255556 -21.4598
ltibia 40.1884
lfoot -18.1454 5.28695
ltoes 16.9238
316
root 4.81151 17.095 2.42429 13.4821 -6.57088 -7.59324
lowerback 6.84271 -1.01366 3.92933
upperback 0.903498 -0.987158 2.32081
thorax -2.92948 -0.524862 0.282491
lowerneck -14.7385 -1.38921 -1.90164
upperneck 38.4566 -1.49581 -0.416927
head 16.2283 -1.01873 -0.125181
rclavicle 1.08338e-014 -1.90833e-014
rhumerus -15.885 24.1892 -53.6071
rradius 64.7371
rwrist 3.10448
rhand -15.178 -40.3301
rfingers 7.12502
rthumb 10.9931 -70.0223
lclavicle 1.08338e-014 -1.90833e-014
lhumerus 7.71526 -12.8206 41.5501
lradius 34.5705
lwrist 24.8458
lhand -21.0641 -26.3066
lfingers 7.12502
lthumb 5.31245 3.60684
rfemur -73.979 -0.636486 17.6632
rtibia 99.3533
rfoot 43.3551 3.58476
rtoes -7.33649
lfemur -32.869 -0.24708 -21.3596
ltibia 40.1332
lfoot -18.1133 5.15038
ltoes 17.0437
317
root 4.81356 17.0953 2.41918 13.423 -6.40113 -7.63061
lowerback 7.31195 -1.10825 3.98118
upperback 0.745105 -1.07147 2.39693
thorax -3.3578 -0.573515 0.352304
lowerneck -14.7753 -1.36494 -2.01452
upperneck 38.6105 -1.42388 -0.415931
head 16.3191 -1.00673 -0.093777
rclavicle 1.96797e-014 -3.57812e-014
rhumerus -16.6551 24.2745 -54.0022
rradius 64.5753
rwrist 2.88001
rhand -14.9066 -40.9285
rfingers 7.12502
rthumb 11.2548 -70.6065
lclavicle 1.96797e-014 -3.57812e-014
lhumerus 6.89251 -12.8023 42.1837
lradius 34.6398
lwrist 24.5987
lhand -21.0395 -26.5688
lfingers 7.12502
lthumb 5.33622 3.34404
rfemur -74.5557 -0.856153 17.9336
rtibia 99.9559
rfoot 43.6487 3.76623
rtoes -7.15946
lfemur -32.8063 -0.337108 -21.2985
ltibia 40.0712
lfoot -18.0703 5.06293
ltoes 16.8229
318
root 4.82091 17.1037 2.42023 13.3299 -6.21848 -7.56587
lowerback 7.11764 -1.16513 4.10659
upperback 1.0129 -1.16162 2.36632
thorax -2.97671 -0.612786 0.25123
lowerneck -15.0978 -1.38967 -2.14739
upperneck 38.5935 -1.45425 -0.291871
head 16.3939 -1.01948 -0.0235495
rclavicle -4.47266e-015 -1.86858e-014
rhumerus -16.9248 23.9074 -54.2716
rradius 64.2748
rwrist 2.70305
rhand -14.6956 -41.1822
rfingers 7.12502
rthumb 11.4584 -70.8491
lclavicle -4.47266e-015 -1.86858e-014
lhumerus 6.5711 -12.2037 42.7887
lradius 34.7104
lwrist 24.0076
lhand -20.7173 -25.8691
lfingers 7.12502
lthumb 5.64726 4.0356
rfemur -74.9956 -1.18227 18.0821
rtibia 100.476
rfoot 43.8098 3.95942
rtoes -7.28899
lfemur -32.6393 -0.52748 -21.3709
ltibia 39.9827
lfoot -18.0657 5.1262
ltoes 16.1186
319
root 4.82382 17.1103 2.42038 13.2777 -6.12788 -7.49095
lowerback 7.13472 -1.20554 4.08065
upperback 1.04087 -1.21736 2.3687
thorax -2.95816 -0.639661 0.273559
lowerneck -15.1002 -1.37111 -2.22977
upperneck 38.629 -1.41542 -0.249149
head 16.4145 -1.00978 0.0166363
rclavicle -3.53837e-014 7.15625e-015
rhumerus -17.4128 23.821 -54.6423
rradius 63.8324
rwrist 2.6308
rhand -14.9265 -40.9785
rfingers 7.12502
rthumb 11.2356 -70.6576
lclavicle -3.53837e-014 7.15625e-015
lhumerus 5.98507 -11.8427 43.4234
lradius 34.6649
lwrist 23.4358
lhand -19.5771 -24.961
lfingers 7.12502
lthumb 6.74804 4.91151
rfemur -75.5519 -1.42483 18.2541
rtibia 100.968
rfoot 44.1119 4.4352
rtoes -7.0743
lfemur -32.5233 -0.651353 -21.452
ltibia 39.8744
lfoot -17.9994 5.2132
ltoes 15.8698
